<svg width="632" height="720" viewBox="0 0 632 720" fill="none" xmlns="http://www.w3.org/2000/svg">
<path d="M184.552 719.035C178.893 719.035 173.437 718.85 168.215 718.472C142.657 716.647 123.592 710.483 111.565 700.145C91.7047 683.08 83.2984 660.676 87.2589 635.341C90.0254 617.675 99.0625 598.532 114.128 578.449C122.165 567.732 144.482 538.504 169.856 505.345C146.209 500.948 124.912 495.58 106.226 489.3C64.6707 475.331 34.9674 456.335 17.9607 432.844C4.76893 414.624 -7.69484 383.921 7.85575 341.152C21.9309 302.431 46.0333 262.855 79.4933 223.522C105.722 192.683 137.803 161.825 174.845 131.811C234.116 83.7807 286.398 53.7473 293.911 49.5053C299.221 46.0302 327.118 28.2179 360.928 15.0747C383.526 6.28984 404.27 1.34898 422.596 0.387991C448.776 -0.980694 470.403 5.59094 486.895 19.9282C514.813 44.2053 524.413 78.2963 513.939 115.93C506.872 141.314 493.118 159.913 491.409 162.165L448.427 219.057C487.332 228.774 539.449 246.111 577.287 274.96C610.494 300.285 629.142 335.095 631.209 375.611C632.646 403.733 625.55 425.137 624.104 429.175C621.133 437.901 586.295 533.078 450.455 626.547C388.35 669.277 316.383 699.873 247.793 712.677C225.341 716.87 203.801 719.015 184.562 719.015L184.552 719.035ZM224.846 513.363C193.152 554.744 162.478 594.873 152.956 607.57C140.191 624.596 136.26 636.147 135.211 642.845C133.872 651.377 136.192 657.318 143.191 663.336C149.034 668.355 181.252 675.751 238.872 664.986C300.929 653.396 366.296 625.547 422.936 586.583C458.959 561.801 509.882 521.003 547.933 467.43C570.045 436.29 577.675 414.915 578.122 413.634L578.432 412.741C578.956 411.207 583.946 395.889 582.626 376.485C580.888 351.024 569.191 329.862 547.836 313.584C509.785 284.56 450.883 268.796 416.316 261.574L357.152 339.88L367.936 344.802C372.353 346.578 395.902 356.333 418.374 371.37C445.485 389.502 475.703 418.924 465.705 456.179C460.648 475.05 445.806 500.171 403.842 512.732C383.225 518.906 364.655 519.372 361.044 519.401C355.492 519.566 294.687 521.1 224.836 513.383L224.846 513.363ZM259.703 467.876C315.024 472.157 359.336 470.876 359.87 470.856H360.627C373.799 470.759 412.957 465.556 418.849 443.58C420.383 437.862 412.491 425.787 391.418 411.692C371.363 398.277 349.804 389.793 349.59 389.706L348.348 389.182L327.206 379.533L309.306 403.218C308.763 403.917 287 432.281 259.713 467.876H259.703ZM429.275 48.7385C412.016 48.7385 392.281 55.0092 379.206 60.0471C347.231 72.375 320.304 90.2455 320.042 90.4203L319.217 90.9639L318.334 91.4589C316.237 92.6238 107.042 210.428 53.4689 357.731C44.4899 382.426 51.3334 396.171 57.2643 404.364C76.1832 430.514 127.679 450.627 203.286 461.683C237.038 417.633 267.799 377.563 270.74 373.728L281.962 358.877L255.161 346.646C241.483 340.404 229.544 331.959 219.672 321.553C192.386 292.791 189.687 258.409 212.45 229.57C231.67 205.225 268.614 195.091 325.41 198.595C358.88 200.653 388.593 206.953 395.562 208.506L452.717 132.859C453.057 132.403 462.997 118.862 467.462 101.845C474.072 76.6849 463.54 63.959 455.037 56.5623C448.475 50.8546 439.283 48.7385 429.255 48.7385H429.275ZM305.171 246.479C272.924 246.479 255.869 252.925 250.559 259.642C246.453 264.845 240.251 272.708 254.889 288.142C260.461 294.015 267.333 298.839 275.322 302.489L311.937 319.204L362.937 251.702C351.551 249.848 337.02 247.906 321.848 247.004C315.888 246.644 310.325 246.479 305.161 246.479H305.171Z" fill="url(#paint0_linear_1273_468)"/>
<defs>
<linearGradient id="paint0_linear_1273_468" x1="440.501" y1="668" x2="281.241" y2="0.538942" gradientUnits="userSpaceOnUse">
<stop stop-color="#FA00FF"/>
<stop offset="0.225" stop-color="#DB00FF"/>
<stop offset="0.665" stop-color="#0C99FF"/>
<stop offset="1" stop-color="#00E0FF"/>
</linearGradient>
</defs>
</svg>
